<svg width="41" height="40" viewBox="0 0 41 40" fill="none" xmlns="http://www.w3.org/2000/svg">
<g id="Apple pay (1) 1" clip-path="url(#clip0_373_944)">
<g id="Group">
<path id="Vector" d="M7.80875 13.8752C7.33995 14.43 6.58987 14.8675 5.83978 14.805C5.74602 14.055 6.11325 13.258 6.54298 12.7657C7.01179 12.1954 7.8322 11.7891 8.49633 11.7578C8.57447 12.5392 8.26975 13.3049 7.80875 13.8752ZM8.48852 14.9535C7.40246 14.891 6.47266 15.5707 5.95698 15.5707C5.43348 15.5707 4.64433 14.9847 3.78486 15.0004C2.66754 15.016 1.62836 15.6489 1.05798 16.6568C-0.114028 18.6727 0.753259 21.6574 1.8862 23.2982C2.44095 24.1108 3.10509 25.0015 3.98019 24.9703C4.80841 24.939 5.13657 24.4311 6.13669 24.4311C7.14462 24.4311 7.43371 24.9703 8.30881 24.9546C9.21517 24.939 9.78554 24.142 10.3403 23.3294C10.9732 22.4075 11.231 21.5089 11.2466 21.462C11.231 21.4464 9.49645 20.7823 9.48082 18.7821C9.46519 17.11 10.8482 16.313 10.9107 16.2661C10.1293 15.1098 8.91044 14.9847 8.48852 14.9535ZM14.7627 12.6876V24.8687H16.6535V20.7041H19.271C21.6619 20.7041 23.3418 19.0633 23.3418 16.6881C23.3418 14.3128 21.6932 12.6876 19.3335 12.6876H14.7627ZM16.6535 14.2815H18.8335C20.4743 14.2815 21.4119 15.1566 21.4119 16.6959C21.4119 18.2351 20.4743 19.118 18.8256 19.118H16.6535V14.2815ZM26.7953 24.9624C27.9829 24.9624 29.0846 24.3608 29.5847 23.4076H29.6238V24.8687H31.374V18.8055C31.374 17.0475 29.9675 15.9145 27.8032 15.9145C25.7952 15.9145 24.3106 17.0631 24.256 18.6414H25.9593C26.0999 17.8913 26.7953 17.3991 27.7485 17.3991C28.9049 17.3991 29.5534 17.9382 29.5534 18.9305V19.6025L27.1938 19.7431C24.9982 19.8759 23.8106 20.7745 23.8106 22.3371C23.8106 23.9155 25.0373 24.9624 26.7953 24.9624ZM27.3032 23.517C26.2952 23.517 25.6546 23.0325 25.6546 22.2903C25.6546 21.5246 26.2718 21.0792 27.4516 21.0089L29.5534 20.876V21.5636C29.5534 22.7044 28.5846 23.517 27.3032 23.517ZM33.7102 28.1816C35.5541 28.1816 36.4214 27.4784 37.1793 25.3453L40.5 16.0317H38.5779L36.3511 23.2279H36.312L34.0852 16.0317H32.1084L35.3119 24.8999L35.14 25.4391C34.8509 26.3532 34.3821 26.7048 33.5461 26.7048C33.3976 26.7048 33.1085 26.6892 32.9913 26.6736V28.1347C33.1007 28.1659 33.5695 28.1816 33.7102 28.1816Z" fill="#4B5363"/>
</g>
</g>
<defs>
<clipPath id="clip0_373_944">
<rect width="40" height="40" fill="white" transform="translate(0.5)"/>
</clipPath>
</defs>
</svg>
