<svg width="38" height="30" viewBox="0 0 38 30" fill="none" xmlns="http://www.w3.org/2000/svg">
<g id="Frame">
<g clip-path="url(#clip0_299_1521)">
<path id="Vector" d="M6.97464 9.28711C6.53519 9.80859 5.83206 10.2187 5.12894 10.1602C5.04105 9.45703 5.38675 8.70703 5.79105 8.25C6.2305 7.7168 6.99808 7.33594 7.62503 7.30664C7.69534 8.0332 7.40824 8.75391 6.97464 9.28711ZM7.61331 10.2949C6.59378 10.2363 5.72074 10.875 5.24027 10.875C4.74808 10.875 4.0098 10.3242 3.2012 10.3418C2.15238 10.3594 1.17972 10.9512 0.646517 11.8945C-0.455046 13.7871 0.359407 16.582 1.42581 18.123C1.9473 18.8848 2.56839 19.7227 3.3887 19.6934C4.168 19.6641 4.47269 19.1895 5.41019 19.1895C6.35355 19.1895 6.62894 19.6934 7.44925 19.6816C8.29886 19.6641 8.83206 18.9199 9.35355 18.1582C9.94534 17.291 10.1914 16.4531 10.2032 16.4062C10.1856 16.3887 8.56253 15.7676 8.54495 13.8926C8.52738 12.3223 9.82816 11.5781 9.88675 11.5313C9.15433 10.4414 8.01175 10.3242 7.61331 10.2949ZM13.4961 8.17383V19.5938H15.2715V15.6914H17.7266C19.9707 15.6914 21.541 14.1504 21.541 11.9238C21.541 9.69727 19.9942 8.17383 17.7852 8.17383H13.4961ZM15.2715 9.66797H17.3164C18.8575 9.66797 19.7364 10.4883 19.7364 11.9297C19.7364 13.3711 18.8575 14.2031 17.3106 14.2031H15.2715V9.66797ZM24.7754 19.6816C25.8887 19.6816 26.92 19.1191 27.3887 18.2227H27.4239V19.5938H29.0645V13.9102C29.0645 12.2637 27.7461 11.1973 25.7188 11.1973C23.8379 11.1973 22.4434 12.2754 22.3907 13.752H23.9903C24.125 13.0488 24.7754 12.5859 25.666 12.5859C26.75 12.5859 27.3594 13.0898 27.3594 14.0215V14.6543L25.1446 14.7891C23.0879 14.9121 21.9746 15.7559 21.9746 17.2207C21.9805 18.6973 23.1289 19.6816 24.7754 19.6816ZM25.2559 18.3281C24.3125 18.3281 23.709 17.8711 23.709 17.1797C23.709 16.459 24.2891 16.043 25.3965 15.9785L27.3653 15.8555V16.5C27.3653 17.5664 26.4571 18.3281 25.2559 18.3281ZM31.2618 22.6992C32.9903 22.6992 33.8047 22.0371 34.5137 20.0391L37.625 11.3086H35.8203L33.7344 18.0527H33.6992L31.6133 11.3086H29.7618L32.7617 19.623L32.5977 20.127C32.3282 20.9824 31.8887 21.3164 31.1035 21.3164C30.9629 21.3164 30.6934 21.2988 30.5821 21.2871V22.6582C30.6875 22.6816 31.127 22.6992 31.2618 22.6992Z" fill="#4B5363"/>
</g>
</g>
<defs>
<clipPath id="clip0_299_1521">
<path d="M0.125 0H37.625V30H0.125V0Z" fill="white"/>
</clipPath>
</defs>
</svg>
