<svg width="40" height="40" viewBox="0 0 40 40" fill="none" xmlns="http://www.w3.org/2000/svg">
<g id="Card 1">
<path id="Vector" d="M36.6668 12.5807C36.6668 13.6807 35.7668 14.5807 34.6668 14.5807H5.3335C4.2335 14.5807 3.3335 13.6807 3.3335 12.5807V12.5641C3.3335 8.7474 6.41683 5.66406 10.2335 5.66406H29.7502C33.5668 5.66406 36.6668 8.76406 36.6668 12.5807Z" fill="#4B5363"/>
<path id="Vector_2" d="M3.3335 19.0833V27.4333C3.3335 31.2499 6.41683 34.3333 10.2335 34.3333H29.7502C33.5668 34.3333 36.6668 31.2333 36.6668 27.4166V19.0833C36.6668 17.9833 35.7668 17.0833 34.6668 17.0833H5.3335C4.2335 17.0833 3.3335 17.9833 3.3335 19.0833ZM13.3335 28.7499H10.0002C9.31683 28.7499 8.75016 28.1833 8.75016 27.4999C8.75016 26.8166 9.31683 26.2499 10.0002 26.2499H13.3335C14.0168 26.2499 14.5835 26.8166 14.5835 27.4999C14.5835 28.1833 14.0168 28.7499 13.3335 28.7499ZM24.1668 28.7499H17.5002C16.8168 28.7499 16.2502 28.1833 16.2502 27.4999C16.2502 26.8166 16.8168 26.2499 17.5002 26.2499H24.1668C24.8502 26.2499 25.4168 26.8166 25.4168 27.4999C25.4168 28.1833 24.8502 28.7499 24.1668 28.7499Z" fill="#4B5363"/>
</g>
</svg>
