<svg width="41" height="40" viewBox="0 0 41 40" fill="none" xmlns="http://www.w3.org/2000/svg">
<g id="Alt mastercard 1" clip-path="url(#clip0_373_976)">
<path id="Vector" d="M0.500047 32.52C0.500047 33.2133 0.740047 33.8 1.22005 34.28C1.70005 34.76 2.30005 35 3.02005 35H38.02C38.6867 35 39.2734 34.76 39.78 34.28C40.2867 33.8 40.5267 33.2133 40.5 32.52V12.52H0.500047V32.52ZM0.500047 10H40.5V7.52C40.5 6.82667 40.26 6.24 39.78 5.76C39.3 5.28 38.7134 5.02667 38.02 5H3.02005C2.32671 5 1.72671 5.25333 1.22005 5.76C0.71338 6.26667 0.47338 6.85333 0.500047 7.52V10ZM13.02 23.76C13.02 22.0267 13.62 20.56 14.82 19.36C16.02 18.16 17.5 17.5467 19.26 17.52C20.3534 17.52 21.3934 17.8133 22.38 18.4C21.1267 20 20.5 21.7867 20.5 23.76C20.5 25.7333 21.1267 27.52 22.38 29.12C21.3934 29.7067 20.3534 30 19.26 30C17.5267 30 16.0467 29.4 14.82 28.2C13.5934 27 12.9934 25.52 13.02 23.76ZM23.02 23.76C23.02 22.0267 23.62 20.56 24.82 19.36C26.02 18.16 27.5 17.5467 29.26 17.52C31.02 17.4933 32.4867 18.1067 33.66 19.36C34.8334 20.6133 35.4467 22.08 35.5 23.76C35.5534 25.44 34.94 26.92 33.66 28.2C32.38 29.48 30.9134 30.08 29.26 30C27.6067 29.92 26.1267 29.32 24.82 28.2C23.5134 27.08 22.9134 25.6 23.02 23.76Z" fill="#4B5363"/>
</g>
<defs>
<clipPath id="clip0_373_976">
<rect width="40" height="40" fill="white" transform="translate(0.5)"/>
</clipPath>
</defs>
</svg>
