<svg width="31" height="31" viewBox="0 0 31 31" fill="none" xmlns="http://www.w3.org/2000/svg">
<g id="Frame">
<g clip-path="url(#clip0_295_618)">
<path id="Vector" d="M11.6621 4.78125L13.7012 8.25H13.625H9.40625C8.11133 8.25 7.0625 7.20117 7.0625 5.90625C7.0625 4.61133 8.11133 3.5625 9.40625 3.5625H9.53516C10.4082 3.5625 11.2227 4.02539 11.6621 4.78125ZM4.25 5.90625C4.25 6.75 4.45508 7.54688 4.8125 8.25H2.375C1.33789 8.25 0.5 9.08789 0.5 10.125V13.875C0.5 14.9121 1.33789 15.75 2.375 15.75H28.625C29.6621 15.75 30.5 14.9121 30.5 13.875V10.125C30.5 9.08789 29.6621 8.25 28.625 8.25H26.1875C26.5449 7.54688 26.75 6.75 26.75 5.90625C26.75 3.05859 24.4414 0.75 21.5938 0.75H21.4648C19.5957 0.75 17.8613 1.74023 16.9121 3.35156L15.5 5.75977L14.0879 3.35742C13.1387 1.74023 11.4043 0.75 9.53516 0.75H9.40625C6.55859 0.75 4.25 3.05859 4.25 5.90625ZM23.9375 5.90625C23.9375 7.20117 22.8887 8.25 21.5938 8.25H17.375H17.2988L19.3379 4.78125C19.7832 4.02539 20.5918 3.5625 21.4648 3.5625H21.5938C22.8887 3.5625 23.9375 4.61133 23.9375 5.90625ZM2.375 17.625V27.9375C2.375 29.4902 3.63477 30.75 5.1875 30.75H13.625V17.625H2.375ZM17.375 30.75H25.8125C27.3652 30.75 28.625 29.4902 28.625 27.9375V17.625H17.375V30.75Z" fill="#7C3AED"/>
</g>
</g>
<defs>
<clipPath id="clip0_295_618">
<path d="M0.5 0.75H30.5V30.75H0.5V0.75Z" fill="white"/>
</clipPath>
</defs>
</svg>
