<svg width="41" height="40" viewBox="0 0 41 40" fill="none" xmlns="http://www.w3.org/2000/svg">
<g id="Frame" clip-path="url(#clip0_373_794)">
<g id="Clip path group">
<mask id="mask0_373_794" style="mask-type:luminance" maskUnits="userSpaceOnUse" x="0" y="0" width="41" height="40">
<g id="clipPath2302076311">
<path id="Vector" d="M0.5 0H40.5V40H0.5V0Z" fill="white"/>
</g>
</mask>
<g mask="url(#mask0_373_794)">
<g id="Group">
<path id="Vector_2" d="M7.10749 17.4375V20.0156H10.6762C10.5308 20.846 10.0539 21.5816 9.35499 22.0531C8.75874 22.4625 7.99749 22.6956 7.10499 22.6956C5.37999 22.6956 3.92187 21.5137 3.39874 19.9319C3.125 19.0996 3.125 18.2016 3.39874 17.3694C3.92187 15.7781 5.37999 14.5962 7.10499 14.5962C8.04948 14.5786 8.96155 14.9407 9.63687 15.6012L11.5294 13.6875C10.3374 12.555 8.75153 11.931 7.10749 11.9475C4.59871 11.9571 2.31254 13.389 1.20874 15.6419C0.263753 17.5342 0.263753 19.7607 1.20874 21.6531V21.6625C2.31289 23.9142 4.59967 25.3437 7.10749 25.35C8.88687 25.35 10.3919 24.7544 11.4825 23.7306C12.7325 22.5675 13.4456 20.8462 13.4456 18.7987C13.4464 18.3427 13.4097 17.8875 13.3362 17.4375M31.4456 17.1875C30.8125 16.6012 29.95 16.3037 28.8587 16.3037C27.455 16.3037 26.4 16.825 25.7025 17.8575L27.0056 18.6862L28.9594 17.6237C29.4849 17.625 29.9914 17.8207 30.3812 18.1731C30.7656 18.5069 30.9865 18.9909 30.9869 19.5V19.8444C30.4181 19.5275 29.7025 19.36 28.8219 19.36C27.7944 19.36 26.9687 19.6025 26.3537 20.0956C25.7387 20.5887 25.4275 21.24 25.4275 22.0681C25.408 22.8177 25.7282 23.536 26.2987 24.0225C26.8769 24.5437 27.6112 24.8044 28.4731 24.8044C29.4912 24.8044 30.2987 24.3481 30.9106 23.4362H30.9731V24.5437H32.3862V19.625C32.3906 18.5906 32.0787 17.7712 31.4456 17.1875ZM30.2437 22.7687C29.8059 23.2142 29.2077 23.4655 28.5831 23.4662C28.1675 23.4731 27.7624 23.335 27.4375 23.0756C27.1301 22.8452 26.95 22.4829 26.9519 22.0987C26.9519 21.6612 27.1531 21.2981 27.5481 21.01C27.9431 20.7219 28.4562 20.5725 29.0525 20.5725C29.875 20.5625 30.5187 20.75 30.9775 21.1212C30.9775 21.7544 30.73 22.3031 30.2437 22.7687ZM24.3906 13.8937C23.7205 13.2237 22.8061 12.8559 21.8587 12.875H17.9419V24.5462H19.4187V19.8187H21.8562C22.8562 19.8187 23.7 19.4837 24.3881 18.8231C24.4431 18.7675 24.4981 18.7112 24.5537 18.6556C25.8066 17.2884 25.734 15.1696 24.3906 13.8912M23.3544 17.7831C22.9777 18.1851 22.4462 18.4056 21.8956 18.3881H19.4187V14.3125H21.8956C22.4242 14.3106 22.932 14.518 23.3081 14.8894C24.1037 15.6816 24.1242 16.9632 23.3544 17.7806M38.8944 16.5625L36.6106 22.2937H36.5825L34.2437 16.5625H32.6381L35.875 24.0344L34.0406 28.0544H35.5625L40.5 16.5625" fill="#4B5563"/>
</g>
</g>
</g>
</g>
<defs>
<clipPath id="clip0_373_794">
<rect width="40" height="40" fill="white" transform="translate(0.5)"/>
</clipPath>
</defs>
</svg>
