<svg width="18" height="20" viewBox="0 0 18 20" fill="none" xmlns="http://www.w3.org/2000/svg">
<g id="Frame">
<g clip-path="url(#clip0_280_1181)">
<path id="Vector" d="M8.75391 5.50684C6.26953 5.50684 4.26562 7.51074 4.26562 9.99512C4.26562 12.4795 6.26953 14.4834 8.75391 14.4834C11.2383 14.4834 13.2422 12.4795 13.2422 9.99512C13.2422 7.51074 11.2383 5.50684 8.75391 5.50684ZM8.75391 12.9131C7.14844 12.9131 5.83594 11.6045 5.83594 9.99512C5.83594 8.38574 7.14453 7.07715 8.75391 7.07715C10.3633 7.07715 11.6719 8.38574 11.6719 9.99512C11.6719 11.6045 10.3594 12.9131 8.75391 12.9131ZM14.4727 5.32324C14.4727 5.90527 14.0039 6.37012 13.4258 6.37012C12.8438 6.37012 12.3789 5.90137 12.3789 5.32324C12.3789 4.74512 12.8477 4.27637 13.4258 4.27637C14.0039 4.27637 14.4727 4.74512 14.4727 5.32324ZM17.4453 6.38574C17.3789 4.9834 17.0586 3.74121 16.0312 2.71777C15.0078 1.69434 13.7656 1.37402 12.3633 1.30371C10.918 1.22168 6.58594 1.22168 5.14062 1.30371C3.74219 1.37012 2.5 1.69043 1.47266 2.71387C0.445313 3.7373 0.128906 4.97949 0.0585937 6.38184C-0.0234375 7.82715 -0.0234375 12.1592 0.0585937 13.6045C0.125 15.0068 0.445313 16.249 1.47266 17.2725C2.5 18.2959 3.73828 18.6162 5.14062 18.6865C6.58594 18.7686 10.918 18.7686 12.3633 18.6865C13.7656 18.6201 15.0078 18.2998 16.0312 17.2725C17.0547 16.249 17.375 15.0068 17.4453 13.6045C17.5273 12.1592 17.5273 7.83105 17.4453 6.38574ZM15.5781 15.1553C15.2734 15.9209 14.6836 16.5107 13.9141 16.8193C12.7617 17.2764 10.0273 17.1709 8.75391 17.1709C7.48047 17.1709 4.74219 17.2725 3.59375 16.8193C2.82812 16.5146 2.23828 15.9248 1.92969 15.1553C1.47266 14.0029 1.57813 11.2686 1.57813 9.99512C1.57813 8.72168 1.47656 5.9834 1.92969 4.83496C2.23438 4.06934 2.82422 3.47949 3.59375 3.1709C4.74609 2.71387 7.48047 2.81934 8.75391 2.81934C10.0273 2.81934 12.7656 2.71777 13.9141 3.1709C14.6797 3.47559 15.2695 4.06543 15.5781 4.83496C16.0352 5.9873 15.9297 8.72168 15.9297 9.99512C15.9297 11.2686 16.0352 14.0068 15.5781 15.1553Z" fill="#9CA2AF"/>
</g>
</g>
<defs>
<clipPath id="clip0_280_1181">
<path d="M0 0H17.5V20H0V0Z" fill="white"/>
</clipPath>
</defs>
</svg>
