<svg width="27" height="31" viewBox="0 0 27 31" fill="none" xmlns="http://www.w3.org/2000/svg">
<g id="Frame">
<g clip-path="url(#clip0_295_651)">
<path id="Vector" d="M20.8476 3.36381C21.1933 2.56108 20.9355 1.62358 20.2265 1.10795C19.5176 0.592327 18.5508 0.639202 17.8887 1.21342L2.88866 14.3384C2.30272 14.854 2.09178 15.6802 2.36717 16.4068C2.64257 17.1333 3.34569 17.6255 4.12499 17.6255H10.6582L6.15233 28.1372C5.80663 28.94 6.06444 29.8775 6.77342 30.3931C7.48241 30.9087 8.44921 30.8619 9.11132 30.2876L24.1113 17.1626C24.6973 16.647 24.9082 15.8208 24.6328 15.0943C24.3574 14.3677 23.6601 13.8814 22.875 13.8814H16.3418L20.8476 3.36381Z" fill="#EA580C"/>
</g>
</g>
<defs>
<clipPath id="clip0_295_651">
<path d="M0.375 0.75H26.625V30.75H0.375V0.75Z" fill="white"/>
</clipPath>
</defs>
</svg>
