<svg width="20" height="20" viewBox="0 0 20 20" fill="none" xmlns="http://www.w3.org/2000/svg">
<g id="Lock 1">
<path id="Vector" fill-rule="evenodd" clip-rule="evenodd" d="M4.58366 8.33332V5.83332C4.58366 4.39673 5.15434 3.01898 6.17017 2.00316C7.18598 0.98734 8.56374 0.416656 10.0003 0.416656C11.4369 0.416656 12.8147 0.98734 13.8305 2.00316C14.8463 3.01898 15.417 4.39673 15.417 5.83332V8.33332H15.8337C17.2144 8.33332 18.3337 9.45257 18.3337 10.8333V16.6667C18.3337 18.0474 17.2144 19.1667 15.8337 19.1667H4.16699C2.78628 19.1667 1.66699 18.0474 1.66699 16.6667V10.8333C1.66699 9.45257 2.78628 8.33332 4.16699 8.33332H4.58366ZM7.93793 3.77093C8.48491 3.22395 9.22674 2.91666 10.0003 2.91666C10.7739 2.91666 11.5157 3.22395 12.0627 3.77093C12.6097 4.31791 12.917 5.05977 12.917 5.83332V8.33332H7.08366V5.83332C7.08366 5.05977 7.39095 4.31791 7.93793 3.77093Z" fill="#16A34A"/>
</g>
</svg>
