<svg width="35" height="30" viewBox="0 0 35 30" fill="none" xmlns="http://www.w3.org/2000/svg">
<g id="Frame">
<g clip-path="url(#clip0_299_1515)">
<path id="Vector" d="M28.9199 24.041C28.9199 24.4395 28.6504 24.7266 28.2637 24.7266C27.8652 24.7266 27.6074 24.4219 27.6074 24.041C27.6074 23.6602 27.8652 23.3555 28.2637 23.3555C28.6504 23.3555 28.9199 23.6602 28.9199 24.041ZM10.709 23.3555C10.293 23.3555 10.0527 23.6602 10.0527 24.041C10.0527 24.4219 10.293 24.7266 10.709 24.7266C11.0898 24.7266 11.3477 24.4395 11.3477 24.041C11.3418 23.6602 11.0898 23.3555 10.709 23.3555ZM17.5938 23.3379C17.2773 23.3379 17.084 23.543 17.0371 23.8477H18.1562C18.1035 23.5137 17.8984 23.3379 17.5938 23.3379ZM23.9102 23.3555C23.5117 23.3555 23.2715 23.6602 23.2715 24.041C23.2715 24.4219 23.5117 24.7266 23.9102 24.7266C24.3086 24.7266 24.5664 24.4395 24.5664 24.041C24.5664 23.6602 24.3086 23.3555 23.9102 23.3555ZM30.1152 24.8848C30.1152 24.9023 30.1328 24.9141 30.1328 24.9492C30.1328 24.9668 30.1152 24.9785 30.1152 25.0137C30.0977 25.0312 30.0977 25.043 30.0859 25.0605C30.0684 25.0781 30.0566 25.0898 30.0215 25.0898C30.0039 25.1074 29.9922 25.1074 29.957 25.1074C29.9395 25.1074 29.9277 25.1074 29.8926 25.0898C29.875 25.0898 29.8633 25.0723 29.8457 25.0605C29.8281 25.043 29.8164 25.0312 29.8164 25.0137C29.7988 24.9844 29.7988 24.9668 29.7988 24.9492C29.7988 24.9199 29.7988 24.9023 29.8164 24.8848C29.8164 24.8555 29.834 24.8379 29.8457 24.8203C29.8633 24.8027 29.875 24.8027 29.8926 24.791C29.9219 24.7734 29.9395 24.7734 29.957 24.7734C29.9863 24.7734 30.0039 24.7734 30.0215 24.791C30.0508 24.8086 30.0684 24.8086 30.0859 24.8203C30.1035 24.832 30.0977 24.8555 30.1152 24.8848ZM29.9863 24.9668C30.0156 24.9668 30.0156 24.9492 30.0332 24.9492C30.0508 24.9316 30.0508 24.9199 30.0508 24.9023C30.0508 24.8848 30.0508 24.873 30.0332 24.8555C30.0156 24.8555 30.0039 24.8379 29.9688 24.8379H29.875V25.043H29.9219V24.9609H29.9395L30.0039 25.043H30.0508L29.9863 24.9668ZM34.375 4.74609V25.3711C34.375 26.9238 33.1152 28.1836 31.5625 28.1836H3.4375C1.88477 28.1836 0.625 26.9238 0.625 25.3711V4.74609C0.625 3.19336 1.88477 1.93359 3.4375 1.93359H31.5625C33.1152 1.93359 34.375 3.19336 34.375 4.74609ZM4.375 12.9258C4.375 17.4082 8.01367 21.041 12.4902 21.041C14.084 21.041 15.6484 20.5605 16.9727 19.6875C12.7012 16.2129 12.7305 9.65625 16.9727 6.18164C15.6484 5.30273 14.084 4.82812 12.4902 4.82812C8.01367 4.82227 4.375 8.46094 4.375 12.9258ZM17.5 19.3008C21.6309 16.0781 21.6133 9.79688 17.5 6.55664C13.3867 9.79688 13.3691 16.084 17.5 19.3008ZM9.16211 23.7715C9.16211 23.2617 8.82812 22.9277 8.30078 22.9102C8.03125 22.9102 7.74414 22.9922 7.55078 23.291C7.41016 23.0508 7.16992 22.9102 6.83594 22.9102C6.61328 22.9102 6.39062 22.9922 6.21484 23.2266V22.9688H5.73438V25.1191H6.21484C6.21484 24.0117 6.06836 23.3496 6.74219 23.3496C7.33984 23.3496 7.22266 23.9473 7.22266 25.1191H7.68555C7.68555 24.0469 7.53906 23.3496 8.21289 23.3496C8.81055 23.3496 8.69336 23.9355 8.69336 25.1191H9.17383V23.7715H9.16211ZM11.793 22.9688H11.3301V23.2266C11.1719 23.0332 10.9492 22.9102 10.6445 22.9102C10.041 22.9102 9.57812 23.3906 9.57812 24.041C9.57812 24.6973 10.041 25.1719 10.6445 25.1719C10.9492 25.1719 11.1719 25.0605 11.3301 24.8555V25.125H11.793V22.9688ZM14.166 24.4688C14.166 23.5898 12.8242 23.9883 12.8242 23.5781C12.8242 23.2441 13.5215 23.2969 13.9082 23.5137L14.1016 23.1328C13.5508 22.7754 12.332 22.7812 12.332 23.6133C12.332 24.4512 13.6738 24.0996 13.6738 24.4922C13.6738 24.8613 12.8828 24.832 12.4609 24.5391L12.2559 24.9082C12.9121 25.3535 14.166 25.2598 14.166 24.4688ZM16.2402 25.0137L16.1113 24.6152C15.8887 24.7383 15.3965 24.873 15.3965 24.375V23.4023H16.1641V22.9688H15.3965V22.3125H14.916V22.9688H14.4707V23.3965H14.916V24.375C14.916 25.4062 15.9297 25.2188 16.2402 25.0137ZM17.0195 24.2285H18.6309C18.6309 23.2793 18.1973 22.9043 17.6113 22.9043C16.9902 22.9043 16.5449 23.3672 16.5449 24.0352C16.5449 25.2363 17.8691 25.4355 18.5254 24.8672L18.3027 24.5156C17.8457 24.8906 17.1543 24.8555 17.0195 24.2285ZM20.4824 22.9688C20.2129 22.8516 19.8027 22.8633 19.5918 23.2266V22.9688H19.1113V25.1191H19.5918V23.9062C19.5918 23.2266 20.1484 23.3145 20.3418 23.4141L20.4824 22.9688ZM21.1035 24.041C21.1035 23.373 21.7832 23.1562 22.3164 23.5488L22.5391 23.168C21.8594 22.6348 20.623 22.9277 20.623 24.0469C20.623 25.207 21.9355 25.4414 22.5391 24.9258L22.3164 24.5449C21.7773 24.9258 21.1035 24.6973 21.1035 24.041ZM25.0117 22.9688H24.5312V23.2266C24.0449 22.582 22.7793 22.9453 22.7793 24.041C22.7793 25.166 24.0918 25.4883 24.5312 24.8555V25.125H25.0117V22.9688ZM26.9863 22.9688C26.8457 22.8984 26.3418 22.7988 26.0957 23.2266V22.9688H25.6328V25.1191H26.0957V23.9062C26.0957 23.2617 26.623 23.3027 26.8457 23.4141L26.9863 22.9688ZM29.3477 22.0957H28.8848V23.2266C28.4043 22.5879 27.1328 22.9277 27.1328 24.041C27.1328 25.1777 28.4512 25.4824 28.8848 24.8555V25.125H29.3477V22.0957ZM29.793 17.6953V17.9648H29.8398V17.6953H29.9512V17.6484H29.6816V17.6953H29.793ZM30.1797 24.9492C30.1797 24.9199 30.1797 24.8848 30.1621 24.8555C30.1445 24.8379 30.1328 24.8086 30.1152 24.791C30.0977 24.7734 30.0684 24.7617 30.0508 24.7441C30.0215 24.7441 29.9863 24.7266 29.957 24.7266C29.9395 24.7266 29.9102 24.7441 29.875 24.7441C29.8457 24.7617 29.8281 24.7734 29.8105 24.791C29.7812 24.8086 29.7637 24.8379 29.7637 24.8555C29.7461 24.8848 29.7461 24.9199 29.7461 24.9492C29.7461 24.9668 29.7461 24.9961 29.7637 25.0312C29.7637 25.0488 29.7812 25.0781 29.8105 25.0957C29.8281 25.1133 29.8398 25.125 29.875 25.1426C29.9043 25.1602 29.9395 25.1602 29.957 25.1602C29.9863 25.1602 30.0215 25.1602 30.0508 25.1426C30.0684 25.125 30.0977 25.1133 30.1152 25.0957C30.1328 25.0781 30.1445 25.0488 30.1621 25.0312C30.1797 24.9961 30.1797 24.9668 30.1797 24.9492ZM30.3672 17.6426H30.2852L30.1914 17.8477L30.0977 17.6426H30.0156V17.959H30.0625V17.7188L30.1562 17.9238H30.2207L30.3027 17.7188V17.959H30.3672V17.6426ZM30.625 12.9258C30.625 8.46094 26.9863 4.82227 22.5098 4.82227C20.916 4.82227 19.3516 5.30273 18.0273 6.17578C22.252 9.65039 22.3164 16.2246 18.0273 19.6816C19.3516 20.5605 20.9277 21.0352 22.5098 21.0352C26.9863 21.041 30.625 17.4082 30.625 12.9258Z" fill="#4B5363"/>
</g>
</g>
<defs>
<clipPath id="clip0_299_1515">
<path d="M0.625 0H34.375V30H0.625V0Z" fill="white"/>
</clipPath>
</defs>
</svg>
