<svg width="20" height="20" viewBox="0 0 20 20" fill="none" xmlns="http://www.w3.org/2000/svg">
<g id="Frame" clip-path="url(#clip0_280_1089)">
<g id="Clip path group">
<mask id="mask0_280_1089" style="mask-type:luminance" maskUnits="userSpaceOnUse" x="0" y="0" width="20" height="20">
<g id="clipPath5807791355">
<path id="Vector" d="M0 0H20V20H0V0Z" fill="white"/>
</g>
</mask>
<g mask="url(#mask0_280_1089)">
<g id="Group">
<path id="Vector_2" d="M8.7402 5.10742L6.03981 0.607031C5.81396 0.230447 5.40706 5.39145e-06 4.96794 0H0.626143C0.120284 0 -0.17581 0.569141 0.114034 0.983594L4.46052 7.19297C5.62145 6.1082 7.09802 5.36367 8.7402 5.10742ZM19.3738 0H15.032C14.593 0 14.1859 0.230469 13.9602 0.607031L11.2598 5.10742C12.902 5.36367 14.3785 6.1082 15.5395 7.19258L19.8859 0.983594C20.1758 0.569141 19.8797 0 19.3738 0ZM9.99997 6.25C6.20309 6.25 3.12497 9.32812 3.12497 13.125C3.12497 16.9219 6.20309 20 9.99997 20C13.7969 20 16.875 16.9219 16.875 13.125C16.875 9.32812 13.7969 6.25 9.99997 6.25ZM13.6141 12.393L12.1324 13.8367L12.4828 15.8766C12.5453 16.2422 12.1602 16.5215 11.8324 16.3488L9.99997 15.3859L8.16794 16.3488C7.83981 16.5227 7.45505 16.2418 7.51755 15.8766L7.86794 13.8367L6.3863 12.393C6.11989 12.1336 6.26716 11.6809 6.63435 11.6277L8.68239 11.3293L9.59763 9.47305C9.68005 9.30586 9.83942 9.22344 9.99919 9.22344C10.1598 9.22344 10.3203 9.30703 10.4027 9.47305L11.318 11.3293L13.366 11.6277C13.7332 11.6809 13.8805 12.1336 13.6141 12.393Z" fill="#16A34A"/>
</g>
</g>
</g>
</g>
<defs>
<clipPath id="clip0_280_1089">
<rect width="20" height="20" fill="white"/>
</clipPath>
</defs>
</svg>
