<svg width="35" height="30" viewBox="0 0 35 30" fill="none" xmlns="http://www.w3.org/2000/svg">
<g id="Frame">
<g clip-path="url(#clip0_299_1518)">
<path id="Vector" d="M11.291 15.1289C11.291 15.8438 10.7227 16.3887 10.002 16.3887C9.46289 16.3887 9.06445 16.084 9.06445 15.5098C9.06445 14.7949 9.62109 14.2207 10.3359 14.2207C10.8809 14.2207 11.291 14.5547 11.291 15.1289ZM5.0918 12.2871H4.81641C4.72852 12.2871 4.64062 12.3457 4.62891 12.4453L4.37695 14.0098L4.85742 13.9922C5.50195 13.9922 6 13.9043 6.11719 13.1602C6.25195 12.375 5.75391 12.2871 5.0918 12.2871ZM21.7324 12.2871H21.4688C21.3633 12.2871 21.293 12.3457 21.2812 12.4453L21.0352 14.0098L21.5039 13.9922C22.2656 13.9922 22.793 13.8164 22.793 12.9375C22.7871 12.3164 22.2305 12.2871 21.7324 12.2871ZM34.125 4.6875V25.3125C34.125 26.8652 32.8652 28.125 31.3125 28.125H3.1875C1.63477 28.125 0.375 26.8652 0.375 25.3125V4.6875C0.375 3.13477 1.63477 1.875 3.1875 1.875H31.3125C32.8652 1.875 34.125 3.13477 34.125 4.6875ZM7.89258 12.6211C7.89258 11.3906 6.94336 10.9805 5.85938 10.9805H3.51562C3.36914 10.9805 3.22266 11.0977 3.21094 11.2559L2.25 17.2383C2.23242 17.3555 2.32031 17.4727 2.4375 17.4727H3.55078C3.70898 17.4727 3.85547 17.3027 3.87305 17.1387L4.13672 15.5801C4.19531 15.1582 4.91016 15.3047 5.19141 15.3047C6.86719 15.3047 7.89258 14.3086 7.89258 12.6211ZM12.8262 13.1367H11.7129C11.4902 13.1367 11.4785 13.459 11.4668 13.6172C11.127 13.1191 10.6348 13.0312 10.0781 13.0312C8.64258 13.0312 7.54688 14.291 7.54688 15.6797C7.54688 16.8223 8.26172 17.5664 9.4043 17.5664C9.93164 17.5664 10.5879 17.2793 10.957 16.8691C10.9277 16.957 10.8984 17.1445 10.8984 17.2324C10.8984 17.3672 10.957 17.4668 11.0859 17.4668H12.0938C12.252 17.4668 12.3867 17.2969 12.416 17.1328L13.0137 13.3652C13.0312 13.2539 12.9434 13.1367 12.8262 13.1367ZM15.1992 18.873L18.9316 13.4473C18.9609 13.418 18.9609 13.3887 18.9609 13.3477C18.9609 13.248 18.873 13.1426 18.7734 13.1426H17.6484C17.5488 13.1426 17.4434 13.2012 17.3848 13.2891L15.832 15.5742L15.1875 13.377C15.1406 13.248 15.0117 13.1426 14.8652 13.1426H13.7695C13.6699 13.1426 13.582 13.248 13.582 13.3477C13.582 13.418 14.7246 16.6758 14.8242 16.9863C14.666 17.209 13.623 18.6621 13.623 18.8379C13.623 18.9434 13.7109 19.0254 13.8105 19.0254H14.9355C15.041 19.0195 15.1406 18.9609 15.1992 18.873ZM24.5332 12.6211C24.5332 11.3906 23.584 10.9805 22.5 10.9805H20.1738C20.0156 10.9805 19.8691 11.0977 19.8516 11.2559L18.9023 17.2324C18.8906 17.3496 18.9785 17.4668 19.0898 17.4668H20.291C20.4082 17.4668 20.4961 17.3789 20.5254 17.2793L20.7891 15.5801C20.8477 15.1582 21.5625 15.3047 21.8438 15.3047C23.5078 15.3047 24.5332 14.3086 24.5332 12.6211ZM29.4668 13.1367H28.3535C28.1309 13.1367 28.1191 13.459 28.1016 13.6172C27.7793 13.1191 27.2812 13.0312 26.7129 13.0312C25.2773 13.0312 24.1816 14.291 24.1816 15.6797C24.1816 16.8223 24.8965 17.5664 26.0391 17.5664C26.584 17.5664 27.2402 17.2793 27.5918 16.8691C27.5742 16.957 27.5332 17.1445 27.5332 17.2324C27.5332 17.3672 27.5918 17.4668 27.7207 17.4668H28.7344C28.8926 17.4668 29.0273 17.2969 29.0566 17.1328L29.6543 13.3652C29.6719 13.2539 29.584 13.1367 29.4668 13.1367ZM32.25 11.1855C32.25 11.0684 32.1621 10.9805 32.0625 10.9805H30.9785C30.8906 10.9805 30.8027 11.0508 30.791 11.1387L29.8418 17.2324L29.8242 17.2617C29.8242 17.3672 29.9121 17.4668 30.0293 17.4668H30.9961C31.1426 17.4668 31.2891 17.2969 31.3008 17.1328L32.25 11.2031V11.1855ZM26.9766 14.2207C26.2617 14.2207 25.7051 14.7891 25.7051 15.5098C25.7051 16.0781 26.1152 16.3887 26.6543 16.3887C27.3574 16.3887 27.9258 15.8496 27.9258 15.1289C27.9316 14.5547 27.5215 14.2207 26.9766 14.2207Z" fill="#4B5363"/>
</g>
</g>
<defs>
<clipPath id="clip0_299_1518">
<path d="M0.375 0H34.125V30H0.375V0Z" fill="white"/>
</clipPath>
</defs>
</svg>
