<svg width="40" height="40" viewBox="0 0 40 40" fill="none" xmlns="http://www.w3.org/2000/svg">
<g id="Logo paypal 1">
<path id="Vector" d="M33.1881 11.6243C33.1545 11.8399 33.1155 12.0602 33.0717 12.2868C31.5741 19.943 26.4499 22.5836 19.9045 22.5836H16.5725C16.187 22.5827 15.8139 22.7197 15.5206 22.9699C15.2273 23.22 15.0332 23.5669 14.9733 23.9477L13.267 34.7165L12.7842 37.7688C12.7669 37.8791 12.7715 37.9917 12.7977 38.1001C12.824 38.2086 12.8714 38.3109 12.9372 38.401C13.003 38.4911 13.086 38.5674 13.1813 38.6254C13.2767 38.6834 13.3825 38.7221 13.4928 38.7391C13.5368 38.746 13.5812 38.7494 13.6256 38.7493H19.5358C19.8738 38.7503 20.2011 38.6307 20.4589 38.412C20.7166 38.1934 20.8879 37.89 20.942 37.5563L20.9999 37.2571L22.1124 30.2258L22.1834 29.8399C22.2367 29.5057 22.4078 29.2015 22.6656 28.9823C22.9235 28.7631 23.2513 28.6433 23.5897 28.6446H24.4733C30.1999 28.6446 34.6819 26.3305 35.992 19.6352C36.5389 16.8383 36.2561 14.5032 34.8077 12.8602C34.3472 12.3534 33.7985 11.9346 33.1881 11.6243Z" fill="#4B5363"/>
<path id="Vector_2" d="M30.1186 3.99141C28.4248 2.07188 25.3678 1.25 21.4553 1.25H10.0975C9.71115 1.24909 9.3372 1.38617 9.04299 1.63654C8.74879 1.88692 8.55367 2.23413 8.49279 2.61563L3.76232 32.4594C3.74243 32.5857 3.74766 32.7146 3.77772 32.8389C3.80778 32.9631 3.86207 33.0802 3.93749 33.1834C4.0129 33.2866 4.10795 33.3739 4.21719 33.4403C4.32642 33.5067 4.44769 33.5509 4.57404 33.5703C4.62418 33.5781 4.67485 33.5821 4.7256 33.582H11.7381L13.499 22.4656L13.4443 22.8141C13.5042 22.4332 13.6983 22.0864 13.9916 21.8362C14.2849 21.5861 14.6581 21.4491 15.0436 21.45H18.3756C24.9201 21.45 30.0443 18.8047 31.5428 11.1531C31.5873 10.9266 31.6248 10.7063 31.6592 10.4906C32.1045 7.66094 31.6553 5.73516 30.1186 3.99141Z" fill="#4B5363"/>
</g>
</svg>
