<svg width="41" height="40" viewBox="0 0 41 40" fill="none" xmlns="http://www.w3.org/2000/svg">
<g id="People community 1">
<g id="&#240;&#159;&#148;&#141;-Product-Icons">
<g id="ic_fluent_people_community_28_filled">
<path id="&#240;&#159;&#142;&#168;-Color" d="M25.8572 25.7142C27.2379 25.7142 28.3572 26.8335 28.3572 28.2142V31.0742L28.3459 31.2291C27.902 34.2666 25.1736 35.7271 20.5954 35.7271C16.0338 35.7271 13.2619 34.2833 12.6636 31.2808L12.6429 31.0714V28.2142C12.6429 26.8335 13.7622 25.7142 15.1429 25.7142H25.8572ZM26.5628 17.1427L35.1429 17.1428C36.5236 17.1428 37.6429 18.2621 37.6429 19.6428V22.5028L37.6316 22.6577C37.1877 25.6952 34.4593 27.1557 29.8812 27.1557L29.6409 27.1534C29.2 25.5778 27.8015 24.4022 26.1126 24.2938L25.8572 24.2857L24.5397 24.2867C25.9969 23.1082 26.9286 21.3057 26.9286 19.2857C26.9286 18.5343 26.7997 17.813 26.5628 17.1427ZM5.85718 17.1428L14.4373 17.1427C14.2004 17.813 14.0715 18.5343 14.0715 19.2857C14.0715 21.1869 14.8968 22.8954 16.2088 24.0723L16.4604 24.2867L15.1429 24.2857C13.3397 24.2857 11.8203 25.5005 11.3584 27.1563L11.3097 27.1557C6.74805 27.1557 3.97618 25.7119 3.37784 22.7093L3.35718 22.4999V19.6428C3.35718 18.2621 4.47647 17.1428 5.85718 17.1428ZM20.5 14.2857C23.2615 14.2857 25.5 16.5242 25.5 19.2857C25.5 22.0471 23.2615 24.2857 20.5 24.2857C17.7386 24.2857 15.5 22.0471 15.5 19.2857C15.5 16.5242 17.7386 14.2857 20.5 14.2857ZM29.7857 5.71423C32.5472 5.71423 34.7857 7.95281 34.7857 10.7142C34.7857 13.4757 32.5472 15.7142 29.7857 15.7142C27.0243 15.7142 24.7857 13.4757 24.7857 10.7142C24.7857 7.95281 27.0243 5.71423 29.7857 5.71423ZM11.2143 5.71423C13.9757 5.71423 16.2143 7.95281 16.2143 10.7142C16.2143 13.4757 13.9757 15.7142 11.2143 15.7142C8.4529 15.7142 6.21432 13.4757 6.21432 10.7142C6.21432 7.95281 8.4529 5.71423 11.2143 5.71423Z" fill="#1F2737"/>
</g>
</g>
</g>
</svg>
