<svg width="33" height="32" viewBox="0 0 33 32" fill="none" xmlns="http://www.w3.org/2000/svg">
<g id="Frame" clip-path="url(#clip0_373_936)">
<g id="Clip path group">
<mask id="mask0_373_936" style="mask-type:luminance" maskUnits="userSpaceOnUse" x="0" y="0" width="33" height="32">
<g id="clipPath3034199981">
<path id="Vector" d="M0.5 0H32.5V32H0.5V0Z" fill="white"/>
</g>
</mask>
<g mask="url(#mask0_373_936)">
<g id="Group">
<path id="Vector_2" d="M14.1079 13.2546H18.0399V19.5106C17.5039 19.7786 16.7892 19.8679 16.2532 19.8679C14.8239 19.8679 14.1079 19.1532 14.1079 17.5439V13.2546ZM32.0679 19.6759C30.0372 28.2746 21.4212 33.5986 12.8239 31.5679C4.22524 29.5386 -1.09876 20.9212 0.931914 12.3239C2.96258 3.72524 11.5786 -1.59876 20.1759 0.431914C28.7746 2.46258 34.0986 11.0786 32.0679 19.6759ZM23.7599 11.8252C23.7485 11.1886 23.2352 10.6753 22.5986 10.6639H20.4532L15.5386 5.03458C15.0919 4.49858 14.3772 4.31991 13.6626 4.49858L11.9639 5.03324C11.6959 5.12258 11.6066 5.47991 11.7852 5.65858L17.1466 10.7519H9.01458C8.74658 10.7519 8.56791 10.9306 8.56791 11.1986V12.0919C8.56791 12.7172 9.10391 13.2532 9.72924 13.2532H10.9799V17.5426C10.9799 20.7599 12.6772 22.6359 15.5372 22.6359C16.4306 22.6359 17.1452 22.5466 18.0399 22.1892V25.0492C18.0399 25.8532 18.6652 26.4786 19.4692 26.4786H20.7199C21.0075 26.4592 21.2365 26.2302 21.2559 25.9426V13.1652H23.3119C23.5799 13.1652 23.7586 12.9866 23.7586 12.7186V11.8252" fill="#4B5563"/>
</g>
</g>
</g>
</g>
<defs>
<clipPath id="clip0_373_936">
<rect width="32" height="32" fill="white" transform="translate(0.5)"/>
</clipPath>
</defs>
</svg>
