<svg width="35" height="31" viewBox="0 0 35 31" fill="none" xmlns="http://www.w3.org/2000/svg">
<g id="Frame">
<g clip-path="url(#clip0_295_629)">
<path id="Vector" d="M14.377 3.25195L12.168 4.07812C11.9922 4.14258 11.875 4.3125 11.875 4.5C11.875 4.6875 11.9922 4.85742 12.168 4.92188L14.377 5.74805L15.2031 7.95703C15.2676 8.13281 15.4375 8.25 15.625 8.25C15.8125 8.25 15.9824 8.13281 16.0469 7.95703L16.873 5.74805L19.082 4.92188C19.2578 4.85742 19.375 4.6875 19.375 4.5C19.375 4.3125 19.2578 4.14258 19.082 4.07812L16.873 3.25195L16.0469 1.04297C15.9824 0.867188 15.8125 0.75 15.625 0.75C15.4375 0.75 15.2676 0.867188 15.2031 1.04297L14.377 3.25195ZM3.32617 23.918C2.23047 25.0137 2.23047 26.7949 3.32617 27.8965L5.35352 29.9238C6.44922 31.0195 8.23047 31.0195 9.33203 29.9238L31.6738 7.57617C32.7695 6.48047 32.7695 4.69922 31.6738 3.59766L29.6465 1.57617C28.5508 0.480469 26.7695 0.480469 25.668 1.57617L3.32617 23.918ZM29.0195 5.58984L22.8672 11.7422L21.502 10.377L27.6543 4.22461L29.0195 5.58984ZM1.06445 7.61719C0.800781 7.7168 0.625 7.96875 0.625 8.25C0.625 8.53125 0.800781 8.7832 1.06445 8.88281L4.375 10.125L5.61719 13.4355C5.7168 13.6992 5.96875 13.875 6.25 13.875C6.53125 13.875 6.7832 13.6992 6.88281 13.4355L8.125 10.125L11.4355 8.88281C11.6992 8.7832 11.875 8.53125 11.875 8.25C11.875 7.96875 11.6992 7.7168 11.4355 7.61719L8.125 6.375L6.88281 3.06445C6.7832 2.80078 6.53125 2.625 6.25 2.625C5.96875 2.625 5.7168 2.80078 5.61719 3.06445L4.375 6.375L1.06445 7.61719ZM21.6895 22.6172C21.4258 22.7168 21.25 22.9688 21.25 23.25C21.25 23.5312 21.4258 23.7832 21.6895 23.8828L25 25.125L26.2422 28.4355C26.3418 28.6992 26.5938 28.875 26.875 28.875C27.1562 28.875 27.4082 28.6992 27.5078 28.4355L28.75 25.125L32.0605 23.8828C32.3242 23.7832 32.5 23.5312 32.5 23.25C32.5 22.9688 32.3242 22.7168 32.0605 22.6172L28.75 21.375L27.5078 18.0645C27.4082 17.8008 27.1562 17.625 26.875 17.625C26.5938 17.625 26.3418 17.8008 26.2422 18.0645L25 21.375L21.6895 22.6172Z" fill="#2563EB"/>
</g>
</g>
<defs>
<clipPath id="clip0_295_629">
<path d="M0.625 0.75H34.375V30.75H0.625V0.75Z" fill="white"/>
</clipPath>
</defs>
</svg>
