<svg width="17" height="17" viewBox="0 0 17 17" fill="none" xmlns="http://www.w3.org/2000/svg">
<g id="Frame">
<g clip-path="url(#clip0_211_1109)">
<path id="Vector" d="M8.50001 0.5C8.64376 0.5 8.78751 0.53125 8.91876 0.590625L14.8031 3.0875C15.4906 3.37813 16.0031 4.05625 16 4.875C15.9844 7.975 14.7094 13.6469 9.32501 16.225C8.80314 16.475 8.19689 16.475 7.67501 16.225C2.29064 13.6469 1.01564 7.975 1.00001 4.875C0.996889 4.05625 1.50939 3.37813 2.19689 3.0875L8.08439 0.590625C8.21251 0.53125 8.35626 0.5 8.50001 0.5ZM8.50001 2.5875V14.4C12.8125 12.3125 13.9719 7.69062 14 4.91875L8.50001 2.5875Z" fill="#16A34A"/>
</g>
</g>
<defs>
<clipPath id="clip0_211_1109">
<path d="M0.5 0.5H16.5V16.5H0.5V0.5Z" fill="white"/>
</clipPath>
</defs>
</svg>
