<svg width="18" height="20" viewBox="0 0 18 20" fill="none" xmlns="http://www.w3.org/2000/svg">
<g id="Frame">
<g clip-path="url(#clip0_280_1184)">
<path id="Vector" d="M18.0001 8.19961C16.2803 8.20372 14.6028 7.6674 13.2044 6.66641V13.6477C13.2039 14.9407 12.8087 16.2027 12.0716 17.265C11.3345 18.3274 10.2906 19.1393 9.07958 19.5924C7.86855 20.0455 6.54806 20.118 5.29469 19.8003C4.04132 19.4826 2.91481 18.7899 2.06578 17.8147C1.21676 16.8395 0.685691 15.6283 0.543593 14.3431C0.401494 13.058 0.655138 11.76 1.27061 10.6229C1.88608 9.48578 2.83404 8.56366 3.98773 7.97983C5.14142 7.39601 6.44586 7.17832 7.72662 7.35586V10.8672C7.14054 10.6828 6.5112 10.6884 5.92847 10.8831C5.34574 11.0777 4.83941 11.4515 4.48181 11.9511C4.1242 12.4507 3.9336 13.0505 3.93721 13.6649C3.94083 14.2793 4.13849 14.8768 4.50196 15.3721C4.86542 15.8675 5.37611 16.2353 5.9611 16.4231C6.54608 16.6109 7.17545 16.609 7.75931 16.4178C8.34317 16.2265 8.85168 15.8557 9.21221 15.3582C9.57275 14.8607 9.76686 14.262 9.76685 13.6477V0H13.2044C13.202 0.290289 13.2263 0.580182 13.277 0.866016C13.3965 1.50409 13.6448 2.1111 14.0069 2.6499C14.369 3.1887 14.8372 3.64796 15.3829 3.99961C16.1592 4.51293 17.0694 4.78652 18.0001 4.78633V8.19961Z" fill="#9CA2AF"/>
</g>
</g>
<defs>
<clipPath id="clip0_280_1184">
<path d="M0.5 0H18V20H0.5V0Z" fill="white"/>
</clipPath>
</defs>
</svg>
