<svg width="20" height="18" viewBox="0 0 20 18" fill="none" xmlns="http://www.w3.org/2000/svg">
<path d="M17.9441 4.92711C17.9568 5.10477 17.9568 5.28246 17.9568 5.46012C17.9568 10.8789 13.8325 17.1225 6.29441 17.1225C3.97207 17.1225 1.81473 16.4499 0 15.2825C0.329961 15.3205 0.647187 15.3332 0.989844 15.3332C2.90605 15.3332 4.67004 14.686 6.07867 13.582C4.27664 13.5439 2.76648 12.3637 2.24617 10.7393C2.5 10.7773 2.75379 10.8027 3.02031 10.8027C3.38832 10.8027 3.75637 10.752 4.09898 10.6632C2.22082 10.2824 0.812148 8.6327 0.812148 6.64031V6.58957C1.35781 6.89414 1.99238 7.08449 2.66492 7.10984C1.56086 6.37379 0.837539 5.11746 0.837539 3.69613C0.837539 2.93473 1.04055 2.23676 1.3959 1.62762C3.41367 4.11492 6.44668 5.73926 9.84766 5.91695C9.78422 5.61238 9.74613 5.29516 9.74613 4.97789C9.74613 2.71898 11.5736 0.878906 13.8451 0.878906C15.0253 0.878906 16.0913 1.37383 16.84 2.17332C17.7664 1.99566 18.6547 1.65301 19.4416 1.18348C19.137 2.13527 18.4898 2.93477 17.6395 3.44234C18.4644 3.35355 19.2639 3.12508 19.9999 2.80785C19.4416 3.62 18.7436 4.34332 17.9441 4.92711Z" fill="#9CA2AF"/>
</svg>
