<svg width="41" height="40" viewBox="0 0 41 40" fill="none" xmlns="http://www.w3.org/2000/svg">
<g id="Video 1">
<path id="Vector" d="M29.8162 11.4531C29.8162 10.2565 29.3035 9.40178 28.4487 8.54708C27.594 7.69238 26.7394 7.35052 25.5427 7.17956C22.9787 7.00863 19.5599 6.66675 16.8248 6.66675C14.0898 6.66675 10.8419 7.00863 8.27782 7.17956C6.05559 7.52145 4.34619 9.23085 4.17526 11.4531C4.00431 13.8462 3.83337 17.265 3.83337 20C3.83337 22.7352 4.00431 25.983 4.17526 28.5472C4.34619 30.7693 6.05559 32.6497 8.27782 32.8207C10.8419 32.9915 14.2607 33.3333 16.9958 33.3333C19.7309 33.3333 23.1495 32.9915 25.7137 32.8207C27.9359 32.6497 29.6454 30.7693 29.8162 28.5472C29.8162 27.6923 29.9872 26.4958 29.9872 25.4702C30.1582 23.5898 30.1582 21.7095 30.1582 20C30.1582 18.2907 30.1582 16.4103 29.9872 14.53C29.9872 13.5043 29.8162 12.4787 29.8162 11.4531Z" fill="#1F2737"/>
<path id="Vector_2" d="M36.483 12.1369C36.141 11.9659 35.6282 11.9659 35.2863 12.1369L31.6967 13.8463C31.6967 14.701 31.8675 15.7266 31.8675 16.5813C31.8675 17.7779 32.0385 18.9745 32.0385 20C32.0385 21.0257 32.0385 22.2224 31.8675 23.4189C31.8675 24.2737 31.8675 25.2992 31.6967 26.154L35.2863 27.8634C35.4573 27.8634 35.6282 28.0344 35.7992 28.0344C35.9702 28.0344 36.312 28.0344 36.483 27.8634C36.8248 27.6924 37.1667 27.1795 37.1667 26.8377V13.1625C37.1667 12.6497 36.8248 12.3078 36.483 12.1369Z" fill="#1F2737"/>
</g>
</svg>
