<svg width="35" height="30" viewBox="0 0 35 30" fill="none" xmlns="http://www.w3.org/2000/svg">
<g id="Frame">
<g clip-path="url(#clip0_299_1512)">
<path id="Vector" d="M28.4199 13.5527C28.4199 13.5527 28.8652 15.7324 28.9648 16.1895H27.0078C27.2012 15.668 27.9453 13.6406 27.9453 13.6406C27.9336 13.6582 28.1387 13.1074 28.2559 12.7676L28.4199 13.5527ZM34.625 4.6875V25.3125C34.625 26.8652 33.3652 28.125 31.8125 28.125H3.6875C2.13477 28.125 0.875 26.8652 0.875 25.3125V4.6875C0.875 3.13477 2.13477 1.875 3.6875 1.875H31.8125C33.3652 1.875 34.625 3.13477 34.625 4.6875ZM9.81055 19.4062L13.5137 10.3125H11.0234L8.7207 16.5234L8.46875 15.2637L7.64844 11.0801C7.51367 10.5 7.09766 10.3359 6.58203 10.3125H2.79102L2.75 10.4941C3.67578 10.7285 4.50195 11.0684 5.22266 11.4961L7.32031 19.4062H9.81055ZM15.3418 19.418L16.8184 10.3125H14.4629L12.9922 19.418H15.3418ZM23.5391 16.4414C23.5508 15.4043 22.918 14.6133 21.5645 13.9629C20.7383 13.5469 20.2344 13.2656 20.2344 12.8379C20.2461 12.4512 20.6621 12.0527 21.5879 12.0527C22.3555 12.0352 22.918 12.2168 23.3398 12.3984L23.5508 12.498L23.873 10.5293C23.4102 10.3477 22.6719 10.1426 21.7637 10.1426C19.4375 10.1426 17.8027 11.3848 17.791 13.1543C17.7734 14.4609 18.9629 15.1875 19.8535 15.627C20.7617 16.0723 21.0723 16.3652 21.0723 16.7578C21.0605 17.3672 20.334 17.6484 19.6602 17.6484C18.7227 17.6484 18.2188 17.502 17.4512 17.1621L17.1406 17.0156L16.8125 19.0605C17.3633 19.3125 18.3828 19.5352 19.4375 19.5469C21.9102 19.5527 23.5215 18.3281 23.5391 16.4414ZM31.8125 19.418L29.9141 10.3125H28.0918C27.5293 10.3125 27.1016 10.4766 26.8613 11.0684L23.3633 19.418H25.8359C25.8359 19.418 26.2402 18.293 26.3281 18.0527H29.3516C29.4219 18.375 29.6328 19.418 29.6328 19.418H31.8125Z" fill="#4B5363"/>
</g>
</g>
<defs>
<clipPath id="clip0_299_1512">
<path d="M0.875 0H34.625V30H0.875V0Z" fill="white"/>
</clipPath>
</defs>
</svg>
